<?xml version="1.0" encoding="utf-8"?>
<!-- Generator: Adobe Illustrator 21.1.0, SVG Export Plug-In . SVG Version: 6.00 Build 0)  -->
<svg version="1.1" id="Layer_1" xmlns="http://www.w3.org/2000/svg" xmlns:xlink="http://www.w3.org/1999/xlink" x="0px" y="0px"
	 viewBox="0 0 1000 1000" style="enable-background:new 0 0 1000 1000;" xml:space="preserve">
<style type="text/css">
	.st0{fill:#755F49;}
	.st1{fill:#010101;}
	.st2{fill:#1E803F;}
	.st3{fill:#8B7258;}
</style>
<path class="st0" d="M194.5,494c0,0-51.2-340.3,365.9-238.3c0,0,217.2-49,283.4,229.1v68.9l67.5-11.9l-74.1-304.5l-51.6-64.9
	L718,129.8c-8.8,1.3-17.7,2.6-26.5,4c-2.8-6.4-5.5-13.5-7.9-21.2c-5.8-18.3-8.3-35-9.3-49c-4.6,6-9.3,11.9-13.9,17.9h-7.9l-2.6-47.7
	L543.9,72.2l11.9-15.9c-33.9,11.5-69,24.5-105.3,39.1c-48.9,19.7-94.4,40.2-136.4,60.9c-30.2,9-60.5,18.1-90.7,27.1
	c0,0-117.8,210.5-115.2,211.9c2.6,1.3-9.3,147-9.3,147l99.3-18.5L194.5,494z"/>
<path class="st1" d="M431.9,37.2c-76.4,10.7-129.9,37-158.6,53.2c-114,63.8-161.6,157.1-161.6,157.2c0,0.1-0.1,0.3-0.1,0.4v15.7
	c0,0.7-0.6,1.3-1.3,1.3h-6c-0.4,0-0.8,0.2-1,0.5c-7.1,10.1-27.4,102.7-27.4,102.7c-14.6,60.6-28,70.2-30.2,71.4
	c-0.2,0.1-0.4,0.3-0.5,0.5c-18.4,32.4,6.5,62.4,9.2,65.6c0.2,0.2,0.3,0.4,0.3,0.6l6.3,40.5c0.1,0.8-0.5,1.4-1.2,1.5
	c-8.6,0.7-11.8,16.4-12.8,22.7c-0.1,0.7-0.8,1.1-1.6,0.9c-2.3-0.5-6.7,5.6-6.7,5.6c-10.5,11.8-9.9,131.6-9.9,134.4c0,0,0,0.1,0,0.1
	c9.8,122,24,173.2,26.2,180.4c0.2,0.5,0.7,0.9,1.2,0.9h4.9c0.5,0,0.9,0.2,1.1,0.6l14.1,24.3c0.1,0.2,0.2,0.3,0.4,0.4
	c34,24.8,61.6,29.7,75.3,30.5c4.1,0.2,6.9,0.1,8.3-0.1c0.6-0.1,1.1,0.3,1.3,0.8l6,15.6c0.2,0.4,0.6,0.7,1,0.8
	c168.5,25.2,98.6-368.2,98.6-368.2c-19.7-138.1-75-106.3-82.6-101.2c-0.5,0.3-1.2,0.3-1.6-0.2c-30.2-29.4-44.7,3.2-46.7,8.1
	c-0.1,0.4-0.5,0.7-0.9,0.8l-17.6,4.7c-0.8,0.2-1.6-0.4-1.6-1.2v-19.3c0-0.2,0-0.3,0.1-0.5l26.2-64.2c0.1-0.3,0.1-0.6,0-0.9l-3.1-8.4
	c-0.3-0.8,0.3-1.7,1.2-1.7h6.6c0.5,0,0.9-0.3,1.2-0.7l45.8-92.9c0.1-0.2,0.2-0.5,0.1-0.8l-2.4-15.3c-0.1-0.8,0.5-1.5,1.3-1.5h4.1
	c0.6,0,1.1-0.4,1.2-1l10.3-38.6c0-0.1,0.1-0.2,0.1-0.3l26.3-44.7c0.1-0.1,0.1-0.2,0.2-0.3l37.8-36.5c0.1-0.1,0.2-0.2,0.2-0.3
	c0.3-0.5,0.6-1,1-1.4c0.1-0.1,0.2-0.2,0.3-0.3c0.9-1.9,2.1-3.7,3.8-5.1c2.1-1.8,4.6-2.9,7.1-4c0.6-0.3,1.2-0.5,1.8-0.7
	c0.4-0.1,0.7-0.4,0.8-0.8c0.7-1.5,1.9-2.9,3.8-3.6c12.5-4.8,24.7-10.5,37-15.6c18-7.6,33-12.8,35.9-14.1c4.6-2,6.3-2.9,12.6-5.6
	c9.1-4,12.3-5.1,25.2-10.6c4.6-2,4.8-2.1,9.3-4c8.4-3.6,14.6-6.1,15.9-6.6c17.1-7,33.9-15.5,60.9-26.5c0,0,21-8.5,57.7-22.1
	c0.1,0,0.3-0.1,0.5-0.2c4.7-1.8,6.3-3.1,6.6-2.9c0.4,0.4-1.2,3.5-10.6,15.9c18.1-6.6,36.2-13.3,54.3-19.9c4.4-1.6,10.2-3.7,14.6-5.3
	C574.5,37.9,510.3,26.1,431.9,37.2z"/>
<path class="st2" d="M160.6,949.5c0,0-50.3-292.6-23.8-444.9l-7.7,2.6c0,0-29.4,187.2,23.6,442.3H160.6z"/>
<polygon class="st3" points="322.1,193.4 343.3,172.2 381.7,148.4 416.1,129.8 422.7,129.8 404.2,148.4 348.6,180.1 334,193.4 "/>
<polygon class="st3" points="474.4,215.9 492.9,200 499.5,197.4 510.1,188.1 519.4,180.1 523.4,180.1 531.3,176.2 531.3,180.1 
	530,185.4 511.5,196 499.5,205.3 490.3,215.9 482.3,222.5 471.7,222.5 "/>
<polygon class="st3" points="422.7,219.9 475.7,189.4 475.7,186.8 483.6,186.8 495.6,177.5 503.5,177.5 503.5,184.1 495.6,189.4 
	483.6,193.4 477,201.3 462.5,206.6 455.8,213.2 449.2,214.6 450.5,219.9 432,225.2 422.7,230.5 417.4,227.8 "/>
<path class="st3" d="M593.5,235.8l6.6-5.3l-2.6-5.3c0,0,35.8-26.5,41-45l19.9-18.5l9.3-17.2l9.3-11.9l7.9-7.9c0,0,1.3,0,2.6,0
	s2.6,5.3,2.6,5.3l2,3.3l-2,4.6l-5.3,7.9l-10.6,9.3l7.9-1.3l-4,7.9l-11.9,7.9l30.5-5.3l-2.6,5.3l-30.5,18.5l10.6-1.3l22.5-6.6
	l27.8,2.6l21.2-1.3l-2.6,7.9c0,0-124.5,51.6-129.8,59.6L593.5,235.8z"/>
<polygon class="st3" points="629.3,253 646.5,246.4 651.8,241.1 677,241.1 692.9,237.1 706.1,237.1 724.6,239.7 733.9,239.7 
	733.9,245 716.7,249 692.9,253 671.7,255.6 "/>
<path class="st3" d="M688.9,260.9l56.9-9.3c0,0,13.2-1.3-2.6,6.6l-45,9.3l-9.3-5.3V260.9z"/>
<path class="st1" d="M948.4,550.9l-7.9-6.6l1.3-21.2l14.6-13.2c27.8-43.7,14.6-79.4,14.6-79.4L947.1,396l-25.2-92.7
	c-17.2-58.3-26.5-59.6-26.5-59.6l-5.3,6.6l2.6-22.5C880.9,165.6,786.9,106,786.9,106c-71.4-36.6-124.8-51.3-149.8-56.7
	c-0.4,0.8-0.9,1.5-1.8,2.2c-2.8,2.3-5.7,4.3-8.7,6c-0.1,1-0.3,1.9-0.9,2.8c-3.3,4.8-8.3,7.5-13.4,10.1c-0.2,1.2-0.8,2.3-1.8,3.2
	c-4.5,4.1-10,6.6-15.8,8.3c-0.6,0.4-1.3,0.7-2.2,0.9c-2.6,0.6-5.2,1.3-7.7,2c6.6,0.3,7.4,8.9,2.7,12.3c-0.7,0.5-1.5,1-2.3,1.5
	c1,1.4,1.4,3.1,1.3,4.8c1.9,0.2,3.8,0.5,5.6,0.7c4.6-3.4,9.3-6.7,13.8-10.3c1.1-0.9,2.2-1.3,3.3-1.5c3.9-2.6,7.8-5.2,11.9-7.5
	c2.9-2.2,6.5-3.6,10.2-5c2.8-1.1,5.2,0.1,6.7,2.2c2.6-1.7,4.7-3.7,6.1-5.8c1.7-2.7,3.5-3.3,4.2-3.1c1.1,0.3,2.3,2.7,2,13.1
	c4,0.4,7.9,0.9,11.9,1.3c0.9-2.8,1.9-5.6,2.8-8.3c3.4-7.3,7.8-16,9.1-15.5c0.8,0.3,0.2,3.7,0,5.3c-2.1,15,3.8,30.7,9.3,45
	c2,5.2,4.9,12.1,9.3,19.9l78.8,53.6l0,0l0,0L855.1,349v18.5l33.1,99.3c9.3,60.9-18.5,35.8-18.5,35.8l-7.9-1.3
	c-15.9-41-45-7.9-45-7.9c-43.7-31.8-71.5,45-71.5,45c-15.9,17.2-29.1,237-29.1,237c4,143,80.8,172.1,80.8,172.1
	c5.3,17.2,35.8,14.6,35.8,14.6l4.6-15.2h11.9c14.6,1.3,60.9-25.2,60.9-25.2c23.8-9.3,27.8-31.8,27.8-31.8l7.9-4
	c26.5-66.2,22.5-245,22.5-245c-0.6-20.8-3.9-45.7-13-72.4C953.1,562.3,950.8,556.4,948.4,550.9z"/>
<path class="st1" d="M652.7,90.8c-1-0.2-1.8-0.7-2.6-1.4c0,0,0,0,0,0c-6,5.3-14,9-21.6,10.8c0.1,1.2-0.2,2.4-0.9,3.5
	c-1.4,2.1-2.9,4.2-4.6,6.1c5.3,1.2,10.4,2.5,15.4,3.9c0.2-0.3,0.5-0.7,0.8-1c4.8-5.2,10.7-9.1,15.2-14.6c0.8-1,1.8-1.6,2.8-1.9
	c0.8-1.7,1.6-3.4,2.5-5.1C657.4,91.4,655.2,91.4,652.7,90.8z"/>
<path class="st2" d="M864.1,738.9c0,0,16.1-226.4-2.7-238.3l8.1,2.6c0,0,17.5,68.9,10.7,128.4c0,0-9.4,275.4-32.2,315.1h-12.1
	C835.9,946.8,857.4,895.2,864.1,738.9z"/>
<path class="st3" d="M626.6,45.1l23.2-8.9l3.3,42.4c0,0,6.6,10.3,13.2-8.3l7.9-6.6v29.1l-53,53c0,0-2.6,14.6,26.5-17.2l26.5-18.5
	c0,0,23.8-2.6,0,19.9l-30.5,26.5l-6.6,7.9l-19.9,9.3l-10.6,13.2L589.6,200l-23.8,21.2l-18.5,15.9l-11.9,7.9l-30.5-6.6l74.1-80.8
	c0,0,45-55.6,46.3-66.2L416.1,218.5l-4-2.6l-4,2.6l-5.3-5.3l55.6-38.4l60.9-49L579,82.2l34.4-27.8l2.6,5.3
	C616.1,59.7,624,55.7,626.6,45.1z"/>
<path class="st3" d="M376.4,172.2L536.2,66.7l7.1,3.5l-4,6.6l-21.2,13.2l1.3,6.6l47.7-33.1l18.5-4l-34.4,27.8l-53,39.7L414.8,200
	l-26.5,21.2l-17.2,10.6L348.6,245l-7.9-2.6l13.2-13.2l27.8-23.8l21.2-17.2l68.9-59.6l-94,59.6C377.7,188.1,360.5,192.1,376.4,172.2z
	"/>
</svg>
